<svg xmlns="http://www.w3.org/2000/svg" viewBox="0 0 517.44 105.38"><defs><style>.cls-1,.cls-2{fill:#0079ea;}.cls-2{font-size:75.44px;font-family:FuturaBT-Medium, Futura Md BT;font-weight:500;}.cls-3{letter-spacing:-0.05em;}</style></defs><g id="Capa_2" data-name="Capa 2"><g id="Capa_1-2" data-name="Capa 1"><g id="Capa_2-2" data-name="Capa 2"><g id="Capa_1-2-2" data-name="Capa 1-2"><path class="cls-1" d="M61,0a51.19,51.19,0,0,1,8.13,1.66A45.21,45.21,0,0,1,90.8,16.3,54.61,54.61,0,0,1,103,44.46a57,57,0,0,1-5,33C92.37,89.46,83.6,98.32,70.93,103a39.1,39.1,0,0,1-17.68,2.15,28.1,28.1,0,0,0-4.3.14,41.49,41.49,0,0,1-27.89-8.48c-9.72-7.27-15.81-17-19-28.62a55.39,55.39,0,0,1-2-17.56c.75-15.23,6-28.51,17.34-39A42,42,0,0,1,42.05.13,3.92,3.92,0,0,0,42.54,0ZM99.71,51.48a49.88,49.88,0,0,0-2.34-14.9C94.18,26.14,88.47,17.4,79.51,11S60.69,2.32,49.93,4.52C37.93,7,29.15,14,22.77,24.09,16.21,34.51,13.86,46,15,58.19A50.58,50.58,0,0,0,26.11,85.81c7.26,8.94,16.48,14.47,28.15,15.51a36,36,0,0,0,18.12-3.07C81.93,94,88.86,86.86,93.69,77.67,97.78,69.88,99.7,61.54,99.71,51.48ZM13.1,76.31h-3c-.88,0-.79.26-.49.85a52.94,52.94,0,0,0,3.32,5.63,1.19,1.19,0,0,0,1.11.58h4.61c.65,0,.79-.18.45-.77a21.7,21.7,0,0,1-2-3.67C16.34,76.7,15.05,75.68,13.1,76.31Zm.27-49.23h2.46A1.16,1.16,0,0,0,17,26.35a52.81,52.81,0,0,1,3.21-5.49c.43-.63.15-.74-.45-.73H15.39a1.34,1.34,0,0,0-1.15.55,49.22,49.22,0,0,0-3.74,5.75c-.31.54-.1.66.41.65Zm-5,36.34h2.57c.64,0,.94-.11.8-.86-.22-1.18-.33-2.37-.47-3.56-.06-.53-.3-.81-.85-.81H4.93c-.57,0-.82.23-.73.81.19,1.22.4,2.43.56,3.65.09.61.44.78,1,.76H8.37Zm2.56,9.06h2.46c.82,0,.93-.13.66-.87-.42-1.15-.78-2.33-1.09-3.52a1,1,0,0,0-1.11-.87H8.41c-2.61,0-2.61,0-1.81,2.48.88,2.75.88,2.75,3.71,2.75Zm.75-41.57H9.12A1,1,0,0,0,8,31.62c-.44,1.22-.9,2.43-1.37,3.64-.23.61-.09.89.6.89h5.22a.88.88,0,0,0,1-.71c.42-1.26.86-2.52,1.31-3.77.19-.53.07-.76-.52-.74l-2.63,0ZM7.77,45.19h2.67a.86.86,0,0,0,1-.87c.15-1.09.33-2.17.55-3.24.15-.72-.09-1-.82-1h-5a1,1,0,0,0-1.1.89v0c-.19,1.15-.37,2.3-.58,3.44-.11.56.12.76.64.76Zm-.37,4H4.73c-.41,0-.76.12-.76.62-.07,1.21-.09,2.42,0,3.63.06.62.37.82.94.82H10c.66,0,.91-.28.89-.93V50.05c0-.67-.27-.93-.91-.91-.87,0-1.72,0-2.58,0ZM26.86,92.41a55.44,55.44,0,0,1-4.33-4.86.7.7,0,0,0-.49-.31H16.4a39.48,39.48,0,0,0,5.18,5,1,1,0,0,0,.58.16C23.63,92.42,25.09,92.41,26.86,92.41ZM28.68,11c-2.6-.14-5-.44-6.82,1.68a29.15,29.15,0,0,1-2.3,2,5.68,5.68,0,0,0-1.29,1.43h5.06a.91.91,0,0,0,.72-.35C25.43,14.18,27,12.72,28.68,11Zm9,89.35a20.52,20.52,0,0,1-4.61-2.86c-1.62-1.48-3.44-1.33-5.39-1.23,1.45,1.31,6.87,3.54,10,4.12ZM37.41,4.9A31.4,31.4,0,0,0,31.24,7C33.85,7.85,35.45,5.85,37.41,4.9Z"/><path class="cls-1" d="M91.08,66.77a14.63,14.63,0,0,1-1.93,4.55,1.6,1.6,0,0,1-2.23.32,1.74,1.74,0,0,1-.9-2.18c.42-1.23.87-2.45,1.4-3.63a1.77,1.77,0,0,1,2.11-1.06A2,2,0,0,1,91.08,66.77Z"/><path class="cls-1" d="M76.05,18.58a1.85,1.85,0,0,1-1.75,2,1.69,1.69,0,0,1-.7-.09,29.46,29.46,0,0,1-3.83-2.17,1.73,1.73,0,0,1-.43-2.3,1.78,1.78,0,0,1,2.16-1,14.39,14.39,0,0,1,4,2.31A1.75,1.75,0,0,1,76.05,18.58Z"/><path class="cls-1" d="M28.62,35.3a21.5,21.5,0,0,1-1.89,4.48,1.61,1.61,0,0,1-2.22.41,1.74,1.74,0,0,1-1-2A19,19,0,0,1,25,34.27a1.74,1.74,0,0,1,2.18-.9A2,2,0,0,1,28.62,35.3Z"/><path class="cls-1" d="M24.53,61.42a1.86,1.86,0,0,1,1.65,1.36c.37,1.17.73,2.35,1,3.53a1.88,1.88,0,0,1-1.25,2.28,1.84,1.84,0,0,1-2.35-1.1,32.46,32.46,0,0,1-1.09-3.73,1.92,1.92,0,0,1,1.42-2.3A1.85,1.85,0,0,1,24.53,61.42Z"/><path class="cls-1" d="M25.1,50.66c0,.5-.08,1.29-.16,2.07a1.83,1.83,0,0,1-1.87,1.79h0a1.88,1.88,0,0,1-1.91-1.77,16,16,0,0,1,.2-4.09,1.9,1.9,0,0,1,3.73.18A15.79,15.79,0,0,1,25.1,50.66Z"/><path class="cls-1" d="M41.44,16.92a1.78,1.78,0,0,1,1-1.67A20.79,20.79,0,0,1,46,13.69a1.91,1.91,0,0,1,2.32,1,1.82,1.82,0,0,1-.76,2.46h0a30.29,30.29,0,0,1-3.65,1.59,1.81,1.81,0,0,1-2.43-1.83Z"/><path class="cls-1" d="M45.27,88.27a1.88,1.88,0,0,1-1.79,2,1.84,1.84,0,0,1-.73-.12,15.23,15.23,0,0,1-3.7-2.1,1.81,1.81,0,0,1-.41-2.4,1.83,1.83,0,0,1,2.4-.76c1.18.61,2.32,1.3,3.46,2A1.65,1.65,0,0,1,45.27,88.27Z"/><path class="cls-1" d="M36.59,23.23c0,1.18-3,4.51-4.13,4.61a1.79,1.79,0,0,1-1.77-.79,1.75,1.75,0,0,1-.06-2,16.23,16.23,0,0,1,2.94-3.25,1.64,1.64,0,0,1,2-.12A2,2,0,0,1,36.59,23.23Z"/><path class="cls-1" d="M91.93,41.58a1.87,1.87,0,0,1-1.43,2.07,1.77,1.77,0,0,1-2.17-1.09c-.46-1.28-.84-2.59-1.17-3.91a1.87,1.87,0,0,1,1.18-2,1.79,1.79,0,0,1,2.31.79A16.29,16.29,0,0,1,91.93,41.58Z"/><path class="cls-1" d="M73.14,88.21A2,2,0,0,1,72,90a20.69,20.69,0,0,1-3.38,1.47,1.9,1.9,0,0,1-2.44-1.09,1.87,1.87,0,0,1,1-2.41,36.83,36.83,0,0,1,3.47-1.52A1.89,1.89,0,0,1,73,87.62,2,2,0,0,1,73.14,88.21Z"/><path class="cls-1" d="M55.93,93.57a13.35,13.35,0,0,1-2.44-.23,1.89,1.89,0,0,1,.2-3.78h0c1.26,0,2.52.1,3.78.22a1.93,1.93,0,0,1,1.74,2,1.88,1.88,0,0,1-1.92,1.84h0A11.93,11.93,0,0,0,55.93,93.57Z"/><path class="cls-1" d="M86.17,28.69a1.94,1.94,0,0,1-1.11,1.76,1.6,1.6,0,0,1-2-.28,18.05,18.05,0,0,1-2.68-3.59,1.64,1.64,0,0,1,.46-2.13,1.69,1.69,0,0,1,2.26-.18,12.84,12.84,0,0,1,3,3.87A1.46,1.46,0,0,1,86.17,28.69Z"/><path class="cls-1" d="M89.33,54.61c.07-.78.09-1.57.22-2.34a1.81,1.81,0,0,1,2-1.58,1.76,1.76,0,0,1,1.79,1.65,15.09,15.09,0,0,1-.2,4.19,1.88,1.88,0,0,1-2,1.46,2,2,0,0,1-1.76-1.73V54.62Z"/><path class="cls-1" d="M30.28,74.54a1.9,1.9,0,0,1,1.53.91c.64.85,1.29,1.69,1.91,2.55a2,2,0,0,1-.21,2.77,1.87,1.87,0,0,1-2.65-.2l-.15-.2c-.74-.89-1.42-1.84-2.08-2.8a1.92,1.92,0,0,1-.08-2.14A1.82,1.82,0,0,1,30.28,74.54Z"/><path class="cls-1" d="M84.13,79.27a1.64,1.64,0,0,1-.43,1.17c-.81.92-1.61,1.86-2.47,2.72a1.86,1.86,0,0,1-2.59.15,1.83,1.83,0,0,1-.29-2.57l.06-.08a35.67,35.67,0,0,1,2.52-2.82,1.71,1.71,0,0,1,2.06-.4A1.83,1.83,0,0,1,84.13,79.27Z"/><path class="cls-1" d="M60.23,15.64c-1-.06-2-.1-3.07-.18a2,2,0,0,1-1.89-1.92,1.92,1.92,0,0,1,1.92-1.87,18.19,18.19,0,0,1,3.38.16c1.37.21,2.17.95,2.09,2.05S61.67,15.71,60.23,15.64Z"/></g></g><text class="cls-2" transform="translate(137.37 76.14)">Coin<tspan class="cls-3" x="162.63" y="0">V</tspan><tspan x="205.14" y="0">ersor</tspan></text></g></g></svg>